<?xml version="1.0" encoding="utf-8"?><svg xmlns="http://www.w3.org/2000/svg" xmlns:xlink="http://www.w3.org/1999/xlink"><symbol viewBox="0 0 444.819 444.819" id="icons--chevron-up" xmlns="http://www.w3.org/2000/svg"><path d="M433.968 278.657L248.387 92.79c-7.419-7.044-16.08-10.566-25.977-10.566-10.088 0-18.652 3.521-25.697 10.566L10.848 278.657C3.615 285.887 0 294.549 0 304.637c0 10.28 3.619 18.843 10.848 25.693l21.411 21.413c6.854 7.23 15.42 10.852 25.697 10.852 10.278 0 18.842-3.621 25.697-10.852L222.41 213.271 361.168 351.74c6.848 7.228 15.413 10.852 25.7 10.852 10.082 0 18.747-3.624 25.975-10.852l21.409-21.412c7.043-7.043 10.567-15.608 10.567-25.693 0-10.09-3.614-18.751-10.851-25.978z"/></symbol><symbol viewBox="0 0 444.819 444.819" id="icons--next" xmlns="http://www.w3.org/2000/svg"><path d="M352.025 196.712L165.884 10.848C159.029 3.615 150.469 0 140.187 0s-18.842 3.619-25.697 10.848L92.792 32.264c-7.044 7.043-10.566 15.604-10.566 25.692 0 9.897 3.521 18.56 10.566 25.981L231.545 222.41 92.786 361.168c-7.042 7.043-10.564 15.604-10.564 25.693 0 9.896 3.521 18.562 10.564 25.98l21.7 21.413c7.043 7.043 15.612 10.564 25.697 10.564 10.089 0 18.656-3.521 25.697-10.564L352.025 248.39c7.046-7.423 10.571-16.084 10.571-25.981.001-10.088-3.525-18.654-10.571-25.697z"/></symbol><symbol viewBox="0 0 444.531 444.531" id="icons--prev" xmlns="http://www.w3.org/2000/svg"><path d="M213.13 222.409L351.88 83.653c7.05-7.043 10.567-15.657 10.567-25.841 0-10.183-3.518-18.793-10.567-25.835l-21.409-21.416C323.432 3.521 314.817 0 304.637 0s-18.791 3.521-25.841 10.561L92.649 196.425c-7.044 7.043-10.566 15.656-10.566 25.841s3.521 18.791 10.566 25.837l186.146 185.864c7.05 7.043 15.66 10.564 25.841 10.564s18.795-3.521 25.834-10.564l21.409-21.412c7.05-7.039 10.567-15.604 10.567-25.697 0-10.085-3.518-18.746-10.567-25.978L213.13 222.409z"/></symbol></svg>