<?xml version="1.0" encoding="utf-8"?><svg xmlns="http://www.w3.org/2000/svg" xmlns:xlink="http://www.w3.org/1999/xlink"><symbol viewBox="0 0 512 512" id="icons--facebook" xmlns="http://www.w3.org/2000/svg"><path d="M288 176v-64c0-17.664 14.336-32 32-32h32V0h-64c-53.024 0-96 42.976-96 96v80h-64v80h64v256h96V256h64l32-80h-96z"/></symbol><symbol viewBox="0 0 96.669 96.669" id="icons--google-plus" xmlns="http://www.w3.org/2000/svg"><path d="M50.91 55.189l-4.533-3.522c-1.38-1.144-3.27-2.656-3.27-5.422 0-2.778 1.889-4.544 3.527-6.18 5.279-4.157 10.557-8.581 10.557-17.903 0-9.586-6.031-14.629-8.923-17.022h7.795L64.244 0H39.459C32.658 0 22.856 1.608 15.68 7.533c-5.408 4.666-8.046 11.099-8.046 16.892 0 9.831 7.548 19.798 20.88 19.798 1.259 0 2.636-.124 4.022-.252-.623 1.515-1.252 2.777-1.252 4.917 0 3.905 2.006 6.299 3.774 8.567-5.663.39-16.237 1.018-24.033 5.809-7.424 4.415-9.684 10.84-9.684 15.377 0 9.334 8.8 18.028 27.045 18.028 21.636 0 33.089-11.971 33.089-23.823.002-8.707-5.028-12.992-10.565-17.657zM34.431 40.691c-10.824 0-15.727-13.992-15.727-22.434 0-3.288.623-6.682 2.763-9.333C23.486 6.4 27 4.762 30.281 4.762c10.434 0 15.846 14.118 15.846 23.197 0 2.271-.251 6.296-3.144 9.207-2.023 2.021-5.409 3.525-8.552 3.525zm.124 50.696c-13.46 0-22.139-6.438-22.139-15.392 0-8.949 8.048-11.978 10.816-12.979 5.281-1.777 12.076-2.024 13.21-2.024 1.258 0 1.887 0 2.889.126 9.568 6.81 13.721 10.203 13.721 16.65.001 7.805-6.417 13.619-18.497 13.619zm48.124-50.888V27.894h-6.224v12.605H63.869v6.294h12.586v12.684h6.224V46.793h12.649v-6.294z"/></symbol><symbol viewBox="0 0 24 24" id="icons--linkedin" xmlns="http://www.w3.org/2000/svg"><path d="M23.994 24v-.001H24v-8.802c0-4.306-.927-7.623-5.961-7.623-2.42 0-4.044 1.328-4.707 2.587h-.07V7.976H8.489v16.023h4.97v-7.934c0-2.089.396-4.109 2.983-4.109 2.549 0 2.587 2.384 2.587 4.243V24zM.396 7.977h4.976V24H.396zM2.882 0C1.291 0 0 1.291 0 2.882s1.291 2.909 2.882 2.909 2.882-1.318 2.882-2.909A2.884 2.884 0 002.882 0z"/></symbol><symbol viewBox="0 0 512 512" id="icons--twitter" xmlns="http://www.w3.org/2000/svg"><path d="M512 97.248c-19.04 8.352-39.328 13.888-60.48 16.576 21.76-12.992 38.368-33.408 46.176-58.016-20.288 12.096-42.688 20.64-66.56 25.408C411.872 60.704 384.416 48 354.464 48c-58.112 0-104.896 47.168-104.896 104.992 0 8.32.704 16.32 2.432 23.936-87.264-4.256-164.48-46.08-216.352-109.792-9.056 15.712-14.368 33.696-14.368 53.056 0 36.352 18.72 68.576 46.624 87.232-16.864-.32-33.408-5.216-47.424-12.928v1.152c0 51.008 36.384 93.376 84.096 103.136-8.544 2.336-17.856 3.456-27.52 3.456-6.72 0-13.504-.384-19.872-1.792 13.6 41.568 52.192 72.128 98.08 73.12-35.712 27.936-81.056 44.768-130.144 44.768-8.608 0-16.864-.384-25.12-1.44C46.496 446.88 101.6 464 161.024 464c193.152 0 298.752-160 298.752-298.688 0-4.64-.16-9.12-.384-13.568 20.832-14.784 38.336-33.248 52.608-54.496z"/></symbol></svg>